<?xml version="1.0" encoding="utf-8"?>
<svg version="1.1" id="Camada_1" xmlns="http://www.w3.org/2000/svg" xmlns:xlink="http://www.w3.org/1999/xlink" x="0px" y="0px"
	 viewBox="0 0 978 183" style="enable-background:new 0 0 978 183;" xml:space="preserve">
<g>
	<path d="M4.69,19.29h76.79v23.02H33.42v24.87h35.96v22.35H33.42v47.72H4.69V19.29z"/>
	<path d="M138.27,138.59c-27.56,0-47.38-18.48-47.38-48.22s19.49-48.22,47.38-48.22c27.39,0,46.71,18.15,46.71,46.71
		c0,2.69-0.17,5.54-0.5,8.4h-65.03c1.01,12.27,8.57,17.98,17.81,17.98c8.07,0,12.6-4.03,14.95-9.07h30.58
		C178.26,124.47,161.63,138.59,138.27,138.59z M119.62,81.29h35.96c0-10.25-8.07-16.13-17.64-16.13
		C128.53,65.16,121.3,70.87,119.62,81.29z"/>
	<path d="M200.11,12.9h28.73v124.34h-28.73V12.9z"/>
	<path d="M246.99,18.28c0-8.74,6.89-15.63,17.14-15.63c10.08,0,16.97,6.89,16.97,15.63c0,8.57-6.89,15.46-16.97,15.46
		C253.88,33.74,246.99,26.85,246.99,18.28z M249.68,43.48h28.73v93.76h-28.73V43.48z"/>
	<path d="M356.88,42.14c23.02,0,41.33,18.48,41.33,48.06s-18.31,48.39-41.33,48.39c-13.78,0-23.69-6.55-28.9-14.45v57.8h-28.73
		V43.48h28.73v13.27C333.19,48.52,343.1,42.14,356.88,42.14z M348.31,67.17c-10.75,0-20.5,8.23-20.5,23.19s9.75,23.19,20.5,23.19
		c10.92,0,20.67-8.4,20.67-23.36S359.23,67.17,348.31,67.17z"/>
	<path d="M455,138.59c-27.56,0-47.38-18.48-47.38-48.22S427.11,42.14,455,42.14c27.39,0,46.71,18.15,46.71,46.71
		c0,2.69-0.17,5.54-0.5,8.4h-65.03c1.01,12.27,8.57,17.98,17.81,17.98c8.07,0,12.6-4.03,14.96-9.07h30.58
		C495,124.47,478.36,138.59,455,138.59z M436.35,81.29h35.96c0-10.25-8.07-16.13-17.64-16.13
		C445.26,65.16,438.03,70.87,436.35,81.29z"/>
	<path d="M552.46,19.29h33.94l33.1,81.66l32.77-81.66h33.77v117.96h-28.73V66.5l-26.38,70.74h-23.19l-26.55-70.91v70.91h-28.73
		V19.29z"/>
	<path d="M749.39,138.59c-27.56,0-48.39-18.48-48.39-48.22s21.34-48.22,48.73-48.22c27.56,0,48.73,18.48,48.73,48.22
		S776.95,138.59,749.39,138.59z M749.39,113.72c10.25,0,19.83-7.56,19.83-23.36c0-15.96-9.41-23.36-19.49-23.36
		c-10.42,0-19.49,7.39-19.49,23.36C730.23,106.16,738.97,113.72,749.39,113.72z"/>
	<path d="M818.28,67.34h-11.43V43.48h11.43V20.63h28.73v22.85h18.82v23.86h-18.82v37.64c0,5.54,2.35,7.9,8.74,7.9H866v24.36h-14.62
		c-19.49,0-33.1-8.23-33.1-32.6V67.34z"/>
	<path d="M917.58,42.14c13.95,0,23.86,6.39,28.9,14.62V43.48h28.73v93.76h-28.73v-13.27c-5.21,8.23-15.12,14.62-29.07,14.62
		c-22.85,0-41.17-18.82-41.17-48.39S894.56,42.14,917.58,42.14z M925.98,67.17c-10.75,0-20.5,8.07-20.5,23.02s9.75,23.36,20.5,23.36
		c10.92,0,20.5-8.23,20.5-23.19S936.91,67.17,925.98,67.17z"/>
</g>
</svg>
